<svg
  xmlns="http://www.w3.org/2000/svg"
  width="218"
  height="225"
  viewBox="0 0 218 225"
  fill="none"
>
  <path
    opacity="0.1"
    d="M100.545 225V142.826C100.545 105 92.1667 73.6957 75.4091 48.9131C57.9812 24.1304 32.8448 7.82606 0 0V34.2391C20.1091 39.4565 34.5206 49.2391 43.2346 63.587C51.9485 77.2826 56.9758 95.2174 58.3164 117.391H20.1091V225H100.545ZM218 225V142.826C218 105 209.621 73.6957 192.864 48.9131C175.436 24.1304 150.299 7.82606 117.455 0V34.2391C137.564 39.4565 151.975 49.2391 160.689 63.587C169.403 77.2826 174.43 95.2174 175.771 117.391H137.564V225H218Z"
    fill="#1572D3"
  />
</svg>
